<svg xmlns="http://www.w3.org/2000/svg" version="1.1" xmlns:xlink="http://www.w3.org/1999/xlink" xmlns:svgjs="http://svgjs.dev/svgjs" width="1440" height="560" preserveAspectRatio="none" viewBox="0 0 1440 560"><g mask="url(&quot;#SvgjsMask1033&quot;)" fill="none"><rect width="1440" height="560" x="0" y="0" fill="rgba(10, 102, 99, 1)"></rect><path d="M0,615.215C114.592,620.397,212.698,543.13,309.647,481.819C407.268,420.083,503.783,355.992,564.892,257.978C631.424,151.266,711.13,22.53,670.118,-96.348C628.431,-217.182,464.726,-235.824,366.371,-317.463C288.703,-381.931,250.46,-494.754,154.065,-524.697C57.352,-554.739,-39.664,-492.446,-139.341,-474.55C-253.747,-454.009,-379.224,-477.356,-475.157,-411.725C-581.439,-339.014,-668.53,-226.21,-688.328,-98.967C-708.189,28.68,-655.646,160.037,-580.464,265.089C-512.149,360.545,-392.671,393.977,-292.157,454.605C-195.029,513.191,-113.313,610.091,0,615.215" fill="#08524f"></path><path d="M1440 1035.848C1539.641 1061.624 1664.086 1097.3490000000002 1742.466 1030.646 1822.942 962.159 1781.621 829.481 1803.879 726.178 1820.519 648.947 1851.416 578.896 1856.784 500.076 1863.399 402.948 1885.247 300.021 1838.726 214.502 1788.7060000000001 122.55099999999999 1695.358 60.73700000000002 1597.532 23.49599999999998 1494.902-15.573999999999955 1371.546-53.303 1275.608 0.1309999999999718 1179.315 53.76299999999998 1176.008 189.253 1124.738 286.824 1086.877 358.877 1029.342 418.83299999999997 1013.631 498.697 997.389 581.266 995.271 670.744 1034.579 745.15 1073.079 818.027 1156.785 848.4359999999999 1223.768 896.4639999999999 1294.899 947.467 1355.262 1013.927 1440 1035.848" fill="#0c7a77"></path></g><defs><mask id="SvgjsMask1033"><rect width="1440" height="560" fill="#ffffff"></rect></mask></defs></svg>